HIERARCHY
ROOT Hips
{
	OFFSET 0.000000 0.000000 0.000000
	CHANNELS 6 Xposition Yposition Zposition Zrotation Yrotation Xrotation 
	JOINT LHipJoint
	{
		OFFSET 0.000000 0.000000 0.000000
		CHANNELS 3 Zrotation Yrotation Xrotation
		JOINT LeftUpLeg
		{
			OFFSET 1.363060 -1.794630 0.839290
			CHANNELS 3 Zrotation Yrotation Xrotation
			JOINT LeftLeg
			{
				OFFSET 2.448110 -6.726130 0.000000
				CHANNELS 3 Zrotation Yrotation Xrotation
				JOINT LeftFoot
				{
					OFFSET 2.562200 -7.039590 0.000000
					CHANNELS 3 Zrotation Yrotation Xrotation
					JOINT LeftToeBase
					{
						OFFSET 0.157640 -0.433110 2.322550
						CHANNELS 3 Zrotation Yrotation Xrotation
						End Site
						{
							OFFSET 0.000000 0.000000 0.000000
						}
					}
				}
			}
		}
	}
	JOINT RHipJoint
	{
		OFFSET 0.000000 0.000000 0.000000
		CHANNELS 3 Zrotation Yrotation Xrotation
		JOINT RightUpLeg
		{
			OFFSET -1.305520 -1.794630 0.839290
			CHANNELS 3 Zrotation Yrotation Xrotation
			JOINT RightLeg
			{
				OFFSET -2.542530 -6.985550 0.000000
				CHANNELS 3 Zrotation Yrotation Xrotation
				JOINT RightFoot
				{
					OFFSET -2.568260 -7.056230 0.000000
					CHANNELS 3 Zrotation Yrotation Xrotation
					JOINT RightToeBase
					{
						OFFSET -0.164730 -0.452590 2.363150
						CHANNELS 3 Zrotation Yrotation Xrotation
						End Site
						{
							OFFSET 0.000000 0.000000 0.000000
						}
					}
				}
			}
		}
	}
	JOINT LowerBack
	{
		OFFSET 0.000000 0.000000 0.000000
		CHANNELS 3 Zrotation Yrotation Xrotation
		JOINT Spine
		{
			OFFSET 0.028270 2.035590 -0.193380
			CHANNELS 3 Zrotation Yrotation Xrotation
			JOINT Spine1
			{
				OFFSET 0.056720 2.048850 -0.042750
				CHANNELS 3 Zrotation Yrotation Xrotation
				JOINT Neck
				{
					OFFSET 0.000000 0.000000 0.000000
					CHANNELS 3 Zrotation Yrotation Xrotation
					JOINT Neck1
					{
						OFFSET -0.054170 1.746240 0.172020
						CHANNELS 3 Zrotation Yrotation Xrotation
						JOINT Head
						{
							OFFSET 0.104070 1.761360 -0.123970
							CHANNELS 3 Zrotation Yrotation Xrotation
							End Site
							{
								OFFSET 0.000000 0.000000 0.000000
							}
						}
					}
				}
				JOINT LeftShoulder
				{
					OFFSET 0.000000 0.000000 0.000000
					CHANNELS 3 Zrotation Yrotation Xrotation
					JOINT LeftArm
					{
						OFFSET 3.362410 1.200890 -0.311210
						CHANNELS 3 Zrotation Yrotation Xrotation
						JOINT LeftForeArm
						{
							OFFSET 4.983000 -0.000000 -0.000000
							CHANNELS 3 Zrotation Yrotation Xrotation
							JOINT LeftHand
							{
								OFFSET 3.483560 -0.000000 -0.000000
								CHANNELS 3 Zrotation Yrotation Xrotation
								JOINT LeftFingerBase
								{
									OFFSET 0.000000 0.000000 0.000000
									CHANNELS 3 Zrotation Yrotation Xrotation
									JOINT LeftHandIndex1
									{
										OFFSET 0.715260 -0.000000 -0.000000
										CHANNELS 3 Zrotation Yrotation Xrotation
										End Site
										{
											OFFSET 0.000000 0.000000 0.000000
										}
									}
								}
								JOINT LThumb
								{
									OFFSET 0.000000 0.000000 0.000000
									CHANNELS 3 Zrotation Yrotation Xrotation
									End Site
									{
										OFFSET 0.000000 0.000000 0.000000
									}
								}
							}
						}
					}
				}
				JOINT RightShoulder
				{
					OFFSET 0.000000 0.000000 0.000000
					CHANNELS 3 Zrotation Yrotation Xrotation
					JOINT RightArm
					{
						OFFSET -3.136600 1.374050 -0.404650
						CHANNELS 3 Zrotation Yrotation Xrotation
						JOINT RightForeArm
						{
							OFFSET -5.241900 -0.000000 -0.000000
							CHANNELS 3 Zrotation Yrotation Xrotation
							JOINT RightHand
							{
								OFFSET -3.444170 -0.000000 -0.000000
								CHANNELS 3 Zrotation Yrotation Xrotation
								JOINT RightFingerBase
								{
									OFFSET 0.000000 0.000000 0.000000
									CHANNELS 3 Zrotation Yrotation Xrotation
									JOINT RightHandIndex1
									{
										OFFSET -0.622530 -0.000000 -0.000000
										CHANNELS 3 Zrotation Yrotation Xrotation
										End Site
										{
											OFFSET 0.000000 0.000000 0.000000
										}
									}
								}
								JOINT RThumb
								{
									OFFSET 0.000000 0.000000 0.000000
									CHANNELS 3 Zrotation Yrotation Xrotation
									End Site
									{
										OFFSET 0.000000 0.000000 0.000000
									}
								}
							}
						}
					}
				}
			}
		}
	}
}
MOTION
Frames: 10
Frame Time: 0.008333
21.519970 16.199550 11.144069 177.341121 -64.168244 -165.233065 -2.217568 -10.837064 -12.195573 -6.112088 2.833949 -25.243714 -2.079081 22.506105 39.260212 3.936152 5.087235 3.484805 13.541349 2.450169 -21.195311 -1.822921 13.323463 -14.514153 -1.776453 -24.615736 1.445082 -3.660410 -22.962755 30.674274 8.398830 -19.144257 -2.421174 0.810002 -10.527832 -9.823219 1.446361 -1.561645 28.330887 0.280085 1.902162 -10.727108 -5.678382 2.036638 -5.044154 -1.094557 1.595828 -11.608294 5.671162 1.115488 6.710319 -10.609484 7.243917 7.760771 14.576435 -3.321562 -1.682133 -92.688346 5.295492 8.381736 146.294034 -76.786920 -142.705996 -7.970779 13.805624 -2.826869 -0.000000 -0.000000 -0.000000 -0.000000 0.000000 -0.000000 0.000000 -0.000000 0.000000 -11.798849 5.599652 -0.315270 82.409311 25.323197 25.689770 -75.560296 76.679976 -58.269892 7.529634 -2.296474 -0.362448 0.000000 -0.000000 0.000000 -0.000000 -0.000000 -0.000000 0.000000 -0.000000 0.000000 
21.353153 16.191592 11.167823 177.127481 -64.700667 -164.706851 -2.255580 -10.755329 -12.082657 -6.798356 3.360186 -25.582003 -1.642858 22.575509 39.573621 4.170512 4.303151 3.005491 14.321183 1.889102 -21.695589 -1.541626 13.018722 -14.300025 -2.215216 -23.801700 0.809365 -3.728322 -22.888023 32.321121 7.964993 -19.100686 -2.176674 0.333483 -9.451621 -9.719936 1.484780 -1.449065 27.996860 0.202070 1.985344 -10.849342 -5.721954 2.118732 -5.189999 -1.303200 1.674831 -11.607286 5.347956 1.185143 6.617938 -9.391024 6.702149 8.313097 14.275483 -3.589057 -1.850526 -92.828178 6.040879 8.220491 147.056999 -76.564822 -143.756586 -9.508617 14.311100 -3.114624 -0.000000 -0.000000 -0.000000 0.000000 0.000000 -0.000000 0.000000 -0.000000 0.000000 -11.765374 5.486975 -0.190648 82.376639 25.021080 28.083059 -83.797806 74.399271 -66.361132 8.801518 -2.533392 -0.421417 -0.000000 -0.000000 0.000000 0.000000 0.000000 -0.000000 -0.000000 -0.000000 0.000000 
21.193393 16.184535 11.209429 176.884110 -64.859131 -164.233761 -2.414394 -10.774277 -11.983732 -7.278276 4.090629 -25.791463 -1.313634 22.811893 39.775633 3.943209 3.751980 2.479016 15.650389 0.777821 -22.408177 -1.318121 12.748237 -14.267875 -2.744228 -21.963633 0.643581 -3.332455 -23.081955 33.780099 6.983603 -19.531585 -1.787091 -0.328057 -7.581105 -9.111139 1.465432 -1.322272 27.890269 0.075179 2.210195 -10.970900 -6.033607 2.358247 -5.472225 -1.352224 1.752223 -11.550935 4.998638 1.232840 6.514770 -8.559400 6.208925 8.790670 14.191530 -3.873035 -1.872710 -93.028953 6.627674 8.245174 147.179578 -76.226856 -143.894037 -10.475527 14.457317 -3.262456 -0.000000 -0.000000 -0.000000 0.000000 0.000000 0.000000 0.000000 0.000000 0.000000 -11.676982 5.479386 -0.047428 82.277303 24.687711 30.278586 -90.555702 71.922757 -75.201539 9.706521 -3.299518 -0.603238 0.000000 -0.000000 0.000000 -0.000000 0.000000 -0.000000 0.000000 -0.000000 0.000000 
21.032583 16.168919 11.245916 176.546238 -65.292989 -163.715020 -2.481846 -10.814388 -11.959921 -7.862050 4.577356 -25.852258 -0.885978 23.157206 40.007530 4.213729 2.951737 1.986448 16.301638 0.063766 -22.614715 -1.326235 12.470990 -14.144561 -3.053235 -21.247258 0.166271 -3.159650 -22.788746 35.389491 6.518729 -19.670376 -1.519932 -1.171258 -4.221787 -7.328384 1.524368 -1.214261 27.692610 -0.021126 2.259356 -11.015787 -6.155003 2.426164 -5.503974 -1.537379 1.745356 -11.665448 4.662542 1.267130 6.417332 -8.386820 5.917390 9.094487 14.037980 -3.944257 -1.876514 -93.228351 7.048121 8.074782 148.192952 -76.013424 -145.381422 -11.807250 15.120869 -3.587833 -0.000000 -0.000000 -0.000000 0.000000 0.000000 0.000000 0.000000 0.000000 0.000000 -11.819309 5.347626 0.005999 82.287121 24.626081 31.307326 -95.187329 70.636809 -80.265581 10.803236 -3.208076 -0.597446 0.000000 0.000000 -0.000000 0.000000 -0.000000 0.000000 0.000000 0.000000 -0.000000 
20.875225 16.138739 11.274474 175.948155 -65.790807 -163.176870 -2.400218 -10.703371 -11.896796 -8.708501 4.819991 -25.722459 -0.698271 23.323441 40.298977 4.835128 2.430791 1.337540 16.944843 -0.292593 -23.106919 -1.375806 12.107933 -14.166287 -3.494600 -20.103706 0.324849 -2.802650 -22.897733 36.811877 3.969839 -19.456600 -0.585910 0.033451 -4.872650 -4.804755 1.396086 -1.103588 27.546251 -0.085412 2.346689 -10.933103 -6.544928 2.575535 -5.395683 -1.416066 1.783826 -11.835771 4.319196 1.266713 6.318792 -7.880378 5.458743 9.329103 14.389676 -4.134572 -1.776384 -93.478127 7.219735 8.175277 148.536439 -75.660580 -145.395767 -15.100553 14.703315 -3.884491 -0.000000 -0.000000 -0.000000 0.000000 0.000000 0.000000 -0.000000 -0.000000 0.000000 -11.785929 4.897961 0.125251 82.407223 24.777839 31.979314 -99.073460 69.650309 -83.670949 12.231764 -2.857258 -0.528874 0.000000 0.000000 0.000000 0.000000 0.000000 0.000000 0.000000 0.000000 0.000000 
20.719970 16.104655 11.309580 175.904949 -66.222164 -162.975720 -2.713083 -10.592570 -11.829623 -8.766775 4.770589 -25.768638 -0.846243 23.253121 40.993706 5.492526 2.261600 0.591970 17.281570 -0.231951 -23.565505 -1.130861 11.556620 -13.958562 -3.611328 -18.946873 -0.833757 -4.032045 -24.476188 39.345516 6.967979 -18.098258 -0.941833 -1.601807 -0.837027 -4.834567 1.494291 -0.963826 27.326241 -0.171025 2.344425 -10.956610 -6.676279 2.579087 -5.523446 -1.486307 1.841550 -11.637180 4.075219 1.303161 6.270471 -7.262727 5.012220 8.902457 14.252920 -4.431349 -1.861822 -93.470071 7.294952 7.707735 149.300864 -75.718843 -146.707586 -15.426545 15.329148 -4.104254 -0.000000 -0.000000 -0.000000 -0.000000 0.000000 -0.000000 -0.000000 0.000000 0.000000 -11.667916 4.837413 0.245782 82.367320 24.496587 31.969333 -100.456355 69.163251 -85.991302 13.610263 -2.387346 -0.419234 0.000000 0.000000 -0.000000 0.000000 -0.000000 0.000000 0.000000 0.000000 -0.000000 
20.563814 16.071922 11.346532 176.013743 -66.607573 -162.865641 -2.994101 -10.491559 -11.766299 -8.537394 4.255883 -25.623585 -1.103283 23.745454 41.431146 6.210915 2.120325 -0.112405 17.582577 -0.343055 -23.838154 -0.918438 11.148745 -13.704941 -3.713859 -17.396779 -1.865634 -2.809719 -24.043317 41.845560 5.090429 -19.038561 -0.707643 -3.428707 1.679164 -6.813410 1.627941 -0.863537 27.072872 -0.254978 2.345179 -10.989846 -6.568644 2.583465 -5.381975 -1.798491 1.865492 -11.703020 3.832166 1.358358 6.216812 -6.695863 4.511387 8.697565 13.830066 -4.429818 -1.861516 -93.403435 7.064731 7.311992 150.300057 -75.806156 -148.039081 -16.264844 15.607398 -4.294955 -0.000000 -0.000000 -0.000000 -0.000000 0.000000 -0.000000 -0.000000 -0.000000 0.000000 -11.787084 4.723292 0.269914 82.334785 24.444587 31.454288 -101.904022 69.271962 -87.517673 15.382908 -1.689636 -0.234290 0.000000 0.000000 0.000000 -0.000000 0.000000 0.000000 0.000000 0.000000 0.000000 
20.420871 16.027778 11.382057 176.167030 -67.165694 -163.024865 -3.056230 -10.436407 -11.825713 -8.595258 3.950093 -25.252349 -1.442817 23.867731 42.000375 6.996625 2.168843 -0.840375 18.036238 -0.205950 -24.495769 -0.810650 10.872310 -13.496308 -3.816327 -15.760696 -2.416426 -1.643840 -24.431638 44.030707 3.082131 -19.575339 -0.203842 -3.564139 1.333051 -7.464332 1.766198 -0.780820 27.022184 -0.297243 2.289780 -10.919629 -6.739928 2.552815 -5.064422 -1.775954 1.850511 -11.931768 3.599644 1.352875 6.135927 -6.959553 4.335898 8.428026 13.973554 -4.401398 -1.822813 -93.450987 6.520829 6.999658 151.219865 -75.841022 -149.206386 -15.716472 15.811568 -4.281712 -0.000000 -0.000000 -0.000000 -0.000000 0.000000 -0.000000 0.000000 0.000000 0.000000 -11.797005 4.486939 0.165161 82.384991 24.540331 31.294790 -103.100411 68.948540 -88.179383 16.198092 -1.109739 -0.066700 -0.000000 0.000000 -0.000000 0.000000 -0.000000 0.000000 -0.000000 0.000000 -0.000000 
20.289640 15.980330 11.413228 176.377920 -67.728112 -163.318925 -2.922490 -10.414469 -11.948589 -8.677555 3.499646 -24.665346 -1.988100 24.136778 42.415834 7.671034 2.438349 -1.516667 18.004935 0.230868 -24.818315 -0.639825 10.752321 -13.402364 -3.999660 -15.428195 -3.159994 -1.914802 -24.937537 46.452678 2.476793 -18.698574 0.460760 -3.690069 0.025176 -9.069761 1.786583 -0.698642 27.103924 -0.271513 2.150035 -10.821092 -6.531483 2.421785 -4.638910 -2.022155 1.854235 -12.283544 3.390456 1.398164 6.029740 -6.752285 4.092638 8.507936 13.937584 -4.090565 -1.778591 -93.547778 5.849205 6.697792 152.138667 -75.849377 -150.585546 -16.197278 16.065040 -4.421054 -0.000000 -0.000000 -0.000000 -0.000000 0.000000 -0.000000 0.000000 0.000000 0.000000 -12.188055 4.330914 0.098778 82.502530 24.967343 31.685541 -103.715059 68.161959 -85.010213 17.224024 0.816626 0.513865 0.000000 -0.000000 0.000000 -0.000000 0.000000 -0.000000 0.000000 -0.000000 0.000000 
20.154805 15.928378 11.446607 176.542552 -68.172497 -163.425514 -3.175145 -10.361518 -11.954010 -8.617943 3.423897 -24.673892 -2.499248 23.687783 43.457036 8.580297 2.919845 -2.273547 18.289944 0.565703 -25.436928 -0.775820 10.382176 -13.234615 -3.292079 -14.339946 -4.666260 -1.083899 -24.443224 49.521347 -0.019603 -20.673139 0.512751 -5.245127 0.771468 -11.938298 1.943400 -0.649495 26.970322 -0.301286 1.972982 -10.699393 -6.561763 2.287578 -4.262152 -2.042758 1.872033 -12.390728 3.221788 1.420149 5.867616 -6.750642 3.927169 7.798275 13.992127 -4.041945 -1.767811 -93.519355 4.636723 6.332776 152.843926 -76.338634 -151.575379 -15.553843 16.088638 -4.339986 -0.000000 -0.000000 -0.000000 -0.000000 -0.000000 0.000000 0.000000 0.000000 0.000000 -12.168818 4.230717 0.142833 82.387693 25.089940 30.286886 -103.376280 69.241585 -86.292559 18.580944 1.132378 0.644845 -0.000000 0.000000 -0.000000 -0.000000 0.000000 -0.000000 -0.000000 0.000000 -0.000000 
